<?xml version="1.0" standalone="no"?>
<!DOCTYPE svg PUBLIC "-//W3C//DTD SVG 20010904//EN"
 "http://www.w3.org/TR/2001/REC-SVG-20010904/DTD/svg10.dtd">
<svg version="1.0" xmlns="http://www.w3.org/2000/svg"
 width="240.000000pt" height="157.000000pt" viewBox="0 0 240.000000 157.000000"
 preserveAspectRatio="xMidYMid meet">

<g transform="translate(0.000000,157.000000) scale(0.100000,-0.100000)"
fill="#000000" stroke="none">
<path d="M0 785 l0 -785 1200 0 1200 0 0 785 0 785 -1200 0 -1200 0 0 -785z
m1340 20 l0 -635 -145 0 -145 0 -2 410 -3 409 -165 -412 -165 -412 -69 0 -69
0 -43 110 c-23 61 -88 225 -143 365 l-100 255 -3 -365 -3 -365 -102 -3 -103
-3 0 525 0 524 48 10 c135 29 253 45 261 36 5 -5 67 -152 136 -327 70 -175
129 -316 132 -314 2 3 66 170 143 372 76 202 142 371 146 375 7 6 225 51 387
79 4 0 7 -285 7 -634z"/>
</g>
</svg>
